<svg width="250" height="65" viewBox="0 0 250 65" fill="none" xmlns="http://www.w3.org/2000/svg">
<g clip-path="url(#clip0_715_610)">
<path d="M22.1309 48.6578C22.1309 49.5885 21.9709 50.4247 21.651 51.1664C21.3311 51.8935 20.8148 52.4752 20.1022 52.9115C19.3896 53.3332 18.4444 53.5441 17.2665 53.5441H10.9187C9.7408 53.5441 8.79555 53.3332 8.08298 52.9115C7.3704 52.4752 6.85415 51.8935 6.53422 51.1664C6.21428 50.4247 6.05432 49.5885 6.05432 48.6578C6.05432 47.7417 6.21428 46.9128 6.53422 46.1711C6.85415 45.4294 7.3704 44.8405 8.08298 44.4042C8.79555 43.9679 9.7408 43.7498 10.9187 43.7498H17.2665C18.4444 43.7498 19.3896 43.9679 20.1022 44.4042C20.8148 44.8405 21.3311 45.4294 21.651 46.1711C21.9709 46.9128 22.1309 47.7417 22.1309 48.6578ZM20.0804 48.6578C20.0804 47.858 19.855 47.2254 19.4042 46.7601C18.9388 46.2947 18.2263 46.062 17.2665 46.062H10.9187C9.95894 46.062 9.25363 46.2947 8.80282 46.7601C8.33747 47.2109 8.10479 47.8435 8.10479 48.6578C8.10479 49.4722 8.33747 50.1121 8.80282 50.5774C9.25363 51.0282 9.95894 51.2536 10.9187 51.2536H17.2665C18.2263 51.2536 18.9388 51.0282 19.4042 50.5774C19.855 50.1121 20.0804 49.4722 20.0804 48.6578ZM22 40.229C22 40.4762 21.9346 40.7089 21.8037 40.927C21.6728 41.1451 21.4837 41.2542 21.2365 41.2542H6.79598C6.53422 41.2542 6.34517 41.1379 6.22883 40.9052C6.11249 40.658 6.05432 40.3889 6.05432 40.0981C6.05432 39.8072 6.11249 39.5455 6.22883 39.3128C6.34517 39.0656 6.53422 38.942 6.79598 38.942H19.9495V33.2704C19.9495 33.0378 20.0586 32.8633 20.2767 32.7469C20.4803 32.6306 20.713 32.5724 20.9748 32.5724C21.222 32.5724 21.4547 32.6306 21.6728 32.7469C21.8909 32.8633 22 33.0378 22 33.2704V40.229ZM22 29.9633C22 30.2542 21.9346 30.5232 21.8037 30.7704C21.6728 31.0031 21.4837 31.1194 21.2365 31.1194H6.79598C6.53422 31.1194 6.34517 31.0031 6.22883 30.7704C6.11249 30.5232 6.05432 30.2542 6.05432 29.9633C6.05432 29.6725 6.11249 29.4107 6.22883 29.178C6.34517 28.9308 6.53422 28.8072 6.79598 28.8072H21.2365C21.4837 28.8072 21.6728 28.9308 21.8037 29.178C21.9346 29.4107 22 29.6725 22 29.9633ZM22 24.9837C22 25.2745 21.9346 25.5436 21.8037 25.7908C21.6728 26.0235 21.4837 26.1398 21.2365 26.1398H6.81779C6.54149 26.1398 6.34517 26.0235 6.22883 25.7908C6.11249 25.5436 6.05432 25.2745 6.05432 24.9837C6.05432 24.7074 6.09795 24.4747 6.1852 24.2857C6.25791 24.0821 6.38879 23.9003 6.57784 23.7403C6.76689 23.5804 7.02866 23.4131 7.36313 23.2386L16.8084 18.396H6.79598C6.53422 18.396 6.34517 18.2797 6.22883 18.047C6.11249 17.7998 6.05432 17.5307 6.05432 17.2399C6.05432 16.949 6.11249 16.6873 6.22883 16.4546C6.34517 16.2074 6.53422 16.0838 6.79598 16.0838H21.2365C21.4837 16.0838 21.6728 16.2074 21.8037 16.4546C21.9346 16.6873 22 16.949 22 17.2399C22 17.5307 21.9273 17.7925 21.7819 18.0252C21.6364 18.2579 21.4256 18.4542 21.1493 18.6141L11.2241 23.8276H21.2365C21.4837 23.8276 21.6728 23.9512 21.8037 24.1984C21.9346 24.4311 22 24.6928 22 24.9837Z" fill="#2DD886"/>
<path d="M32.814 53C32.1246 53 31.4869 52.8449 30.9009 52.5346C30.3493 52.2244 30.0736 51.7763 30.0736 51.1903V16.9608C30.0736 16.3404 30.3493 15.8922 30.9009 15.6165C31.4869 15.3407 32.1246 15.2028 32.814 15.2028C33.5034 15.2028 34.1239 15.3407 34.6754 15.6165C35.2614 15.8922 35.5544 16.3404 35.5544 16.9608V31.2317H48.4292V16.9608C48.4292 16.3404 48.705 15.8922 49.2565 15.6165C49.8425 15.3407 50.4802 15.2028 51.1696 15.2028C51.8591 15.2028 52.4795 15.3407 53.0311 15.6165C53.6171 15.8922 53.9101 16.3404 53.9101 16.9608V51.1903C53.9101 51.7763 53.6171 52.2244 53.0311 52.5346C52.4795 52.8449 51.8591 53 51.1696 53C50.4802 53 49.8425 52.8449 49.2565 52.5346C48.705 52.2244 48.4292 51.7763 48.4292 51.1903V35.575H35.5544V51.1903C35.5544 51.7763 35.2614 52.2244 34.6754 52.5346C34.1239 52.8449 33.5034 53 32.814 53ZM73.7535 53C73.0641 53 72.4264 52.8449 71.8404 52.5346C71.2888 52.2244 71.0131 51.7763 71.0131 51.1903V38.1086C71.0131 37.9018 70.9614 37.7122 70.858 37.5399L60.1548 18.2535C60.0859 18.0811 60.0341 17.9433 59.9997 17.8398C59.9997 17.702 59.9997 17.5813 59.9997 17.4779C59.9997 17.0298 60.1893 16.6506 60.5684 16.3404C60.9476 15.9957 61.3957 15.7199 61.9128 15.5131C62.4643 15.3062 62.9814 15.2028 63.464 15.2028C63.9121 15.2028 64.2568 15.3062 64.4981 15.5131C64.7739 15.7199 65.0152 16.0301 65.222 16.4438L73.7535 32.8346L82.2333 16.4438C82.4746 16.0301 82.7159 15.7199 82.9572 15.5131C83.233 15.3062 83.5949 15.2028 84.043 15.2028C84.5256 15.2028 85.0254 15.3062 85.5425 15.5131C86.094 15.7199 86.5594 15.9957 86.9386 16.3404C87.3177 16.6506 87.5073 17.0298 87.5073 17.4779C87.5073 17.5813 87.4901 17.702 87.4556 17.8398C87.4556 17.9433 87.4039 18.0811 87.3005 18.2535L76.649 37.5399C76.5456 37.7122 76.4939 37.9018 76.4939 38.1086V51.1903C76.4939 51.7763 76.2009 52.2244 75.6149 52.5346C75.0634 52.8449 74.4429 53 73.7535 53ZM96.0215 53C95.2976 53 94.7116 52.8276 94.2635 52.4829C93.8153 52.1382 93.5913 51.7246 93.5913 51.242V16.9608C93.5913 16.4782 93.8153 16.0646 94.2635 15.7199C94.7116 15.3752 95.2976 15.2028 96.0215 15.2028H105.173C107.345 15.2028 109.31 15.582 111.068 16.3404C112.86 17.0987 114.256 18.3224 115.256 20.0115C116.29 21.7006 116.807 23.9412 116.807 26.7333V41.4695C116.807 44.2617 116.29 46.5023 115.256 48.1913C114.256 49.8804 112.86 51.1041 111.068 51.8625C109.31 52.6208 107.345 53 105.173 53H96.0215ZM99.0721 48.1396H105.173C107.104 48.1396 108.603 47.6053 109.672 46.5367C110.775 45.4337 111.326 43.7446 111.326 41.4695V26.7333C111.326 24.4582 110.775 22.7864 109.672 21.7178C108.603 20.6147 107.104 20.0632 105.173 20.0632H99.0721V48.1396ZM145.672 53.1551C145.224 53.1551 144.81 53 144.431 52.6898C144.086 52.3795 143.793 52.0003 143.552 51.5522L135.951 36.7643H130.78V51.1903C130.78 51.7763 130.487 52.2244 129.901 52.5346C129.35 52.8449 128.729 53 128.04 53C127.351 53 126.713 52.8449 126.127 52.5346C125.575 52.2244 125.3 51.7763 125.3 51.1903V16.9608C125.3 16.4782 125.455 16.0646 125.765 15.7199C126.11 15.3752 126.575 15.2028 127.161 15.2028H136.985C139.157 15.2028 141.139 15.5303 142.931 16.1852C144.724 16.8057 146.154 17.8915 147.223 19.4427C148.292 20.9594 148.826 23.0622 148.826 25.7509C148.826 27.8191 148.498 29.5427 147.844 30.9215C147.223 32.3003 146.361 33.4034 145.258 34.2307C144.19 35.0235 142.966 35.6095 141.587 35.9887L148.826 49.5874C148.895 49.6908 148.947 49.8287 148.981 50.001C149.016 50.1389 149.033 50.2596 149.033 50.363C149.033 50.8111 148.86 51.2592 148.516 51.7073C148.171 52.121 147.74 52.4657 147.223 52.7415C146.74 53.0172 146.223 53.1551 145.672 53.1551ZM130.78 32.3693H136.985C138.916 32.3693 140.45 31.9039 141.587 30.9732C142.759 30.0425 143.345 28.4568 143.345 26.2162C143.345 23.9756 142.759 22.39 141.587 21.4593C140.45 20.5286 138.916 20.0632 136.985 20.0632H130.78V32.3693ZM167.168 53.3102C164.962 53.3102 162.98 52.9311 161.222 52.1727C159.498 51.4143 158.119 50.1906 157.085 48.5016C156.086 46.8125 155.586 44.5719 155.586 41.7798V26.7333C155.586 23.9412 156.086 21.7006 157.085 20.0115C158.119 18.3224 159.498 17.0987 161.222 16.3404C162.98 15.582 164.962 15.2028 167.168 15.2028C169.34 15.2028 171.304 15.582 173.062 16.3404C174.82 17.0987 176.216 18.3224 177.251 20.0115C178.285 21.7006 178.802 23.9412 178.802 26.7333V41.7798C178.802 44.5719 178.285 46.8125 177.251 48.5016C176.216 50.1906 174.82 51.4143 173.062 52.1727C171.304 52.9311 169.34 53.3102 167.168 53.3102ZM167.168 48.4499C169.064 48.4499 170.563 47.9156 171.666 46.847C172.769 45.7439 173.321 44.0548 173.321 41.7798V26.7333C173.321 24.4582 172.769 22.7864 171.666 21.7178C170.598 20.6147 169.098 20.0632 167.168 20.0632C165.238 20.0632 163.721 20.6147 162.618 21.7178C161.549 22.7864 161.015 24.4582 161.015 26.7333V41.7798C161.015 44.0548 161.549 45.7439 162.618 46.847C163.721 47.9156 165.238 48.4499 167.168 48.4499Z" fill="#2DD886"/>
<path d="M185.836 41.7239C185.717 41.7239 185.62 41.696 185.543 41.6403C185.474 41.5776 185.439 41.5045 185.439 41.4209V34.3907C185.439 34.3071 185.474 34.2375 185.543 34.1818C185.62 34.1191 185.717 34.0878 185.836 34.0878H187.685C188.11 34.0878 188.493 34.1644 188.834 34.3176C189.175 34.4638 189.443 34.7041 189.638 35.0384C189.84 35.3657 189.941 35.8079 189.941 36.365V39.4466C189.941 40.0038 189.84 40.4495 189.638 40.7837C189.443 41.111 189.175 41.3513 188.834 41.5045C188.493 41.6508 188.11 41.7239 187.685 41.7239H185.836ZM186.316 40.93H187.685C188.116 40.93 188.454 40.8116 188.698 40.5748C188.942 40.3311 189.064 39.955 189.064 39.4466V36.365C189.064 35.8567 188.942 35.4841 188.698 35.2473C188.454 35.0036 188.116 34.8817 187.685 34.8817H186.316V40.93ZM191.732 41.7239C191.662 41.7239 191.582 41.7099 191.491 41.6821C191.408 41.6473 191.338 41.602 191.282 41.5463C191.234 41.4906 191.209 41.4279 191.209 41.3583C191.209 41.3304 191.213 41.3026 191.22 41.2747L193.361 34.328C193.389 34.2236 193.455 34.147 193.56 34.0982C193.664 34.0495 193.776 34.0251 193.894 34.0251C194.019 34.0251 194.134 34.053 194.239 34.1087C194.343 34.1574 194.409 34.2305 194.437 34.328L196.568 41.2747C196.582 41.3026 196.589 41.3269 196.589 41.3478C196.589 41.4175 196.558 41.4801 196.495 41.5358C196.439 41.5916 196.37 41.6368 196.286 41.6716C196.203 41.7065 196.122 41.7239 196.046 41.7239C195.969 41.7239 195.903 41.7099 195.847 41.6821C195.792 41.6473 195.753 41.595 195.732 41.5254L195.262 39.9689H192.515L192.066 41.5254C192.045 41.595 192.003 41.6473 191.941 41.6821C191.885 41.7099 191.815 41.7239 191.732 41.7239ZM192.724 39.2482H195.064L193.894 35.3204L192.724 39.2482ZM199.732 41.8074C199.286 41.8074 198.896 41.7413 198.562 41.609C198.228 41.4697 197.97 41.3095 197.789 41.1284C197.608 40.9404 197.517 40.7733 197.517 40.627C197.517 40.5574 197.535 40.4878 197.569 40.4181C197.611 40.3415 197.66 40.2788 197.716 40.2301C197.778 40.1744 197.841 40.1465 197.904 40.1465C197.987 40.1465 198.067 40.1883 198.144 40.2719C198.228 40.3554 198.329 40.4564 198.447 40.5748C198.572 40.6862 198.732 40.7837 198.927 40.8673C199.122 40.9509 199.377 40.9927 199.69 40.9927C199.982 40.9927 200.237 40.9474 200.453 40.8569C200.668 40.7594 200.836 40.6166 200.954 40.4286C201.079 40.2336 201.142 39.9898 201.142 39.6973C201.142 39.3979 201.079 39.1541 200.954 38.9661C200.829 38.7781 200.661 38.6214 200.453 38.496C200.251 38.3707 200.028 38.2593 199.784 38.1618C199.547 38.0643 199.303 37.9668 199.053 37.8693C198.809 37.7648 198.586 37.6395 198.384 37.4932C198.182 37.34 198.019 37.145 197.893 36.9082C197.768 36.6714 197.705 36.372 197.705 36.0099C197.705 35.6268 197.775 35.31 197.914 35.0593C198.053 34.8086 198.238 34.6101 198.468 34.4638C198.698 34.3176 198.945 34.2166 199.209 34.1609C199.481 34.0982 199.746 34.0669 200.003 34.0669C200.191 34.0669 200.39 34.0808 200.599 34.1087C200.808 34.1365 201.006 34.1783 201.194 34.234C201.382 34.2897 201.535 34.3629 201.654 34.4534C201.772 34.537 201.831 34.6379 201.831 34.7563C201.831 34.812 201.818 34.8782 201.79 34.9548C201.762 35.0244 201.72 35.0906 201.664 35.1533C201.609 35.209 201.539 35.2369 201.455 35.2369C201.379 35.2369 201.285 35.2055 201.173 35.1428C201.062 35.0732 200.912 35.007 200.724 34.9444C200.543 34.8747 200.303 34.8399 200.003 34.8399C199.753 34.8399 199.516 34.8747 199.293 34.9444C199.077 35.014 198.903 35.1289 198.771 35.2891C198.645 35.4493 198.583 35.6617 198.583 35.9263C198.583 36.177 198.645 36.3824 198.771 36.5426C198.896 36.7028 199.06 36.8351 199.262 36.9396C199.464 37.044 199.687 37.1415 199.93 37.2321C200.174 37.3156 200.418 37.4166 200.661 37.535C200.905 37.6464 201.128 37.7857 201.33 37.9528C201.539 38.12 201.706 38.3393 201.831 38.6109C201.957 38.8756 202.019 39.2098 202.019 39.6138C202.019 40.1152 201.918 40.5295 201.717 40.8569C201.522 41.1772 201.253 41.4175 200.912 41.5776C200.571 41.7308 200.177 41.8074 199.732 41.8074ZM204.014 41.7239C203.91 41.7239 203.809 41.6995 203.711 41.6508C203.621 41.595 203.575 41.515 203.575 41.4105V34.3907C203.575 34.2863 203.621 34.2097 203.711 34.1609C203.809 34.1122 203.91 34.0878 204.014 34.0878C204.126 34.0878 204.227 34.1122 204.317 34.1609C204.408 34.2097 204.453 34.2863 204.453 34.3907V37.3992H207.284V34.3907C207.284 34.2863 207.329 34.2097 207.42 34.1609C207.517 34.1122 207.618 34.0878 207.723 34.0878C207.834 34.0878 207.935 34.1122 208.025 34.1609C208.116 34.2097 208.161 34.2863 208.161 34.3907V41.4105C208.161 41.515 208.116 41.595 208.025 41.6508C207.935 41.6995 207.834 41.7239 207.723 41.7239C207.618 41.7239 207.517 41.6995 207.42 41.6508C207.329 41.595 207.284 41.515 207.284 41.4105V38.1304H204.453V41.4105C204.453 41.515 204.408 41.595 204.317 41.6508C204.227 41.6995 204.126 41.7239 204.014 41.7239ZM210.47 41.7239C210.352 41.7239 210.254 41.696 210.178 41.6403C210.108 41.5776 210.073 41.5045 210.073 41.4209V34.4012C210.073 34.2967 210.115 34.2201 210.199 34.1713C210.282 34.1156 210.373 34.0878 210.47 34.0878H212.267C212.65 34.0878 213.002 34.1365 213.322 34.234C213.649 34.3246 213.907 34.4987 214.095 34.7563C214.29 35.014 214.387 35.3866 214.387 35.8741C214.387 36.3128 214.307 36.6784 214.147 36.9709C213.987 37.2634 213.771 37.4688 213.5 37.5872C213.715 37.6708 213.903 37.7857 214.064 37.9319C214.224 38.0712 214.349 38.2558 214.44 38.4856C214.53 38.7084 214.576 39.0009 214.576 39.3631V39.5511C214.576 40.0873 214.485 40.5156 214.304 40.836C214.123 41.1493 213.876 41.3757 213.562 41.515C213.249 41.6542 212.897 41.7239 212.507 41.7239H210.47ZM210.951 40.93H212.361C212.786 40.93 213.113 40.8151 213.343 40.5853C213.58 40.3554 213.698 39.9933 213.698 39.4989V39.3213C213.698 38.8199 213.58 38.4682 213.343 38.2662C213.113 38.0573 212.786 37.9528 212.361 37.9528H210.951V40.93ZM210.951 37.2216H212.256C212.688 37.2216 213.005 37.1276 213.207 36.9396C213.409 36.7446 213.51 36.4312 213.51 35.9994C213.51 35.7139 213.454 35.491 213.343 35.3309C213.238 35.1637 213.089 35.0488 212.894 34.9861C212.706 34.9165 212.483 34.8817 212.225 34.8817H210.951V37.2216ZM218.356 41.7866C217.931 41.7866 217.548 41.7134 217.207 41.5672C216.873 41.414 216.605 41.1737 216.403 40.8464C216.208 40.5121 216.11 40.0664 216.11 39.5093V36.365C216.11 35.8079 216.208 35.3657 216.403 35.0384C216.605 34.7041 216.873 34.4638 217.207 34.3176C217.548 34.1644 217.931 34.0878 218.356 34.0878C218.781 34.0878 219.164 34.1644 219.505 34.3176C219.846 34.4638 220.115 34.7041 220.31 35.0384C220.512 35.3657 220.613 35.8079 220.613 36.365V39.5093C220.613 40.0664 220.512 40.5121 220.31 40.8464C220.115 41.1737 219.846 41.414 219.505 41.5672C219.164 41.7134 218.781 41.7866 218.356 41.7866ZM218.356 40.9927C218.788 40.9927 219.126 40.8743 219.369 40.6375C219.613 40.3937 219.735 40.0177 219.735 39.5093V36.365C219.735 35.8567 219.613 35.4841 219.369 35.2473C219.126 35.0036 218.788 34.8817 218.356 34.8817C217.924 34.8817 217.587 35.0036 217.343 35.2473C217.106 35.4841 216.988 35.8567 216.988 36.365V39.5093C216.988 40.0177 217.106 40.3937 217.343 40.6375C217.587 40.8743 217.924 40.9927 218.356 40.9927ZM222.395 41.7239C222.325 41.7239 222.245 41.7099 222.154 41.6821C222.071 41.6473 222.001 41.602 221.945 41.5463C221.897 41.4906 221.872 41.4279 221.872 41.3583C221.872 41.3304 221.876 41.3026 221.883 41.2747L224.024 34.328C224.052 34.2236 224.118 34.147 224.223 34.0982C224.327 34.0495 224.439 34.0251 224.557 34.0251C224.682 34.0251 224.797 34.053 224.902 34.1087C225.006 34.1574 225.072 34.2305 225.1 34.328L227.231 41.2747C227.245 41.3026 227.252 41.3269 227.252 41.3478C227.252 41.4175 227.221 41.4801 227.158 41.5358C227.102 41.5916 227.033 41.6368 226.949 41.6716C226.866 41.7065 226.785 41.7239 226.709 41.7239C226.632 41.7239 226.566 41.7099 226.51 41.6821C226.455 41.6473 226.416 41.595 226.395 41.5254L225.925 39.9689H223.178L222.729 41.5254C222.708 41.595 222.666 41.6473 222.603 41.6821C222.548 41.7099 222.478 41.7239 222.395 41.7239ZM223.387 39.2482H225.727L224.557 35.3204L223.387 39.2482ZM232.63 41.7448C232.547 41.7448 232.47 41.7099 232.4 41.6403C232.338 41.5707 232.282 41.4906 232.233 41.4L230.666 38.3393H229.455V41.4105C229.455 41.515 229.409 41.595 229.319 41.6508C229.228 41.6995 229.127 41.7239 229.016 41.7239C228.911 41.7239 228.81 41.6995 228.713 41.6508C228.622 41.595 228.577 41.515 228.577 41.4105V34.3907C228.577 34.3071 228.605 34.2375 228.661 34.1818C228.723 34.1261 228.8 34.0947 228.89 34.0878H230.802C231.227 34.0878 231.613 34.1539 231.962 34.2863C232.317 34.4116 232.599 34.6275 232.808 34.9339C233.017 35.2334 233.121 35.6477 233.121 36.177C233.121 36.6018 233.052 36.9535 232.912 37.2321C232.78 37.5106 232.595 37.73 232.359 37.8902C232.122 38.0434 231.857 38.1513 231.565 38.214L233.111 41.1493C233.125 41.1772 233.135 41.2051 233.142 41.2329C233.149 41.2538 233.153 41.2747 233.153 41.2956C233.153 41.3722 233.125 41.4453 233.069 41.515C233.02 41.5846 232.954 41.6403 232.87 41.6821C232.794 41.7239 232.714 41.7448 232.63 41.7448ZM229.455 37.6081H230.802C231.234 37.6081 231.582 37.5037 231.847 37.2947C232.111 37.0858 232.244 36.7341 232.244 36.2397C232.244 35.7452 232.111 35.397 231.847 35.1951C231.582 34.9861 231.234 34.8817 230.802 34.8817H229.455V37.6081ZM235.023 41.7239C234.905 41.7239 234.807 41.696 234.731 41.6403C234.661 41.5776 234.626 41.5045 234.626 41.4209V34.3907C234.626 34.3071 234.661 34.2375 234.731 34.1818C234.807 34.1191 234.905 34.0878 235.023 34.0878H236.872C237.297 34.0878 237.68 34.1644 238.021 34.3176C238.362 34.4638 238.63 34.7041 238.825 35.0384C239.027 35.3657 239.128 35.8079 239.128 36.365V39.4466C239.128 40.0038 239.027 40.4495 238.825 40.7837C238.63 41.111 238.362 41.3513 238.021 41.5045C237.68 41.6508 237.297 41.7239 236.872 41.7239H235.023ZM235.504 40.93H236.872C237.304 40.93 237.641 40.8116 237.885 40.5748C238.129 40.3311 238.251 39.955 238.251 39.4466V36.365C238.251 35.8567 238.129 35.4841 237.885 35.2473C237.641 35.0036 237.304 34.8817 236.872 34.8817H235.504V40.93Z" fill="#2DD886"/>
<path d="M187.559 54.0761C187.441 54.0761 187.33 54.0517 187.225 54.003C187.121 53.9473 187.051 53.8707 187.016 53.7732L184.875 46.8265C184.868 46.7987 184.864 46.7708 184.864 46.7429C184.864 46.6733 184.892 46.6106 184.948 46.5549C185.004 46.4992 185.073 46.4574 185.157 46.4296C185.24 46.3947 185.32 46.3773 185.397 46.3773C185.474 46.3773 185.54 46.3947 185.596 46.4296C185.658 46.4574 185.7 46.5062 185.721 46.5758L187.559 52.7808L189.387 46.5758C189.408 46.5062 189.447 46.4574 189.502 46.4296C189.558 46.3947 189.624 46.3773 189.701 46.3773C189.784 46.3773 189.868 46.3947 189.952 46.4296C190.035 46.4644 190.105 46.5096 190.16 46.5654C190.216 46.6141 190.244 46.6768 190.244 46.7534C190.244 46.7604 190.241 46.7708 190.234 46.7847C190.234 46.7987 190.234 46.8126 190.234 46.8265L188.103 53.7732C188.075 53.8707 188.009 53.9473 187.904 54.003C187.8 54.0517 187.685 54.0761 187.559 54.0761ZM193.648 54.0761C193.223 54.0761 192.84 54.003 192.499 53.8567C192.165 53.7035 191.897 53.4633 191.695 53.136C191.5 52.8017 191.402 52.356 191.402 51.7989V48.6546C191.402 48.0975 191.5 47.6552 191.695 47.3279C191.897 46.9937 192.165 46.7534 192.499 46.6071C192.84 46.4539 193.223 46.3773 193.648 46.3773C194.066 46.3773 194.446 46.4539 194.787 46.6071C195.128 46.7534 195.4 46.9937 195.602 47.3279C195.804 47.6552 195.904 48.0975 195.904 48.6546V51.7989C195.904 52.356 195.804 52.8017 195.602 53.136C195.4 53.4633 195.128 53.7035 194.787 53.8567C194.446 54.003 194.066 54.0761 193.648 54.0761ZM193.648 53.2822C194.073 53.2822 194.407 53.1638 194.651 52.927C194.902 52.6833 195.027 52.3072 195.027 51.7989V48.6546C195.027 48.1462 194.905 47.7736 194.661 47.5368C194.418 47.2931 194.08 47.1712 193.648 47.1712C193.216 47.1712 192.879 47.2931 192.635 47.5368C192.398 47.7736 192.28 48.1462 192.28 48.6546V51.7989C192.28 52.3072 192.398 52.6833 192.635 52.927C192.879 53.1638 193.216 53.2822 193.648 53.2822ZM193.648 50.6498C193.53 50.6498 193.432 50.6115 193.356 50.5349C193.279 50.4513 193.241 50.3503 193.241 50.2319C193.241 50.1136 193.279 50.0161 193.356 49.9395C193.432 49.8628 193.53 49.8245 193.648 49.8245C193.773 49.8245 193.871 49.8628 193.941 49.9395C194.017 50.0161 194.056 50.1136 194.056 50.2319C194.056 50.3503 194.017 50.4513 193.941 50.5349C193.871 50.6115 193.773 50.6498 193.648 50.6498ZM197.735 54.0761C197.575 54.0761 197.442 54.0204 197.338 53.909C197.234 53.7975 197.181 53.6722 197.181 53.5329C197.181 53.3797 197.234 53.2509 197.338 53.1464C197.442 53.035 197.575 52.9793 197.735 52.9793C197.874 52.9793 197.996 53.035 198.101 53.1464C198.212 53.2509 198.268 53.3797 198.268 53.5329C198.268 53.6722 198.212 53.7975 198.101 53.909C197.996 54.0204 197.874 54.0761 197.735 54.0761ZM199.791 54.0134C199.707 54.0134 199.62 53.9856 199.529 53.9299C199.439 53.8741 199.394 53.7975 199.394 53.7V52.6868C199.394 52.4012 199.477 52.1401 199.644 51.9033C199.811 51.6596 200.027 51.4298 200.292 51.2139C200.557 50.991 200.835 50.7786 201.128 50.5767C201.427 50.3677 201.709 50.1553 201.974 49.9395C202.238 49.7166 202.454 49.4833 202.621 49.2396C202.789 48.9958 202.872 48.7312 202.872 48.4457C202.872 48.2437 202.827 48.0487 202.736 47.8607C202.646 47.6657 202.507 47.5055 202.318 47.3802C202.13 47.2548 201.887 47.1921 201.587 47.1921C201.26 47.1921 200.981 47.2861 200.752 47.4742C200.529 47.6622 200.417 47.9477 200.417 48.3308C200.417 48.4213 200.376 48.5014 200.292 48.571C200.215 48.6407 200.104 48.6755 199.958 48.6755C199.832 48.6755 199.735 48.6407 199.665 48.571C199.596 48.4944 199.561 48.3586 199.561 48.1636C199.561 47.8084 199.651 47.4985 199.832 47.2339C200.02 46.9623 200.268 46.7534 200.574 46.6071C200.887 46.4539 201.229 46.3773 201.598 46.3773C202.002 46.3773 202.364 46.4644 202.684 46.6385C203.011 46.8126 203.269 47.0528 203.457 47.3593C203.652 47.6657 203.75 48.0174 203.75 48.4143C203.75 48.7834 203.666 49.1177 203.499 49.4171C203.332 49.7166 203.116 49.9882 202.851 50.2319C202.594 50.4757 202.315 50.702 202.016 50.9109C201.723 51.1129 201.444 51.3079 201.18 51.4959C200.922 51.6839 200.71 51.8755 200.543 52.0705C200.376 52.2654 200.292 52.4709 200.292 52.6868V53.2195H203.509C203.593 53.2195 203.663 53.2578 203.718 53.3344C203.781 53.411 203.812 53.5051 203.812 53.6165C203.812 53.7209 203.781 53.815 203.718 53.8985C203.663 53.9751 203.593 54.0134 203.509 54.0134H199.791Z" fill="#2DD886"/>
</g>
<defs>
<clipPath id="clip0_715_610">
<rect width="250" height="65" fill="white"/>
</clipPath>
</defs>
</svg>
