<svg width="24" height="24" viewBox="0 0 24 24" fill="none" xmlns="http://www.w3.org/2000/svg">
<path d="M18.9283 8.25926C18.8629 8.07088 18.7566 7.90922 18.6215 7.7926C18.4864 7.67597 18.328 7.60904 18.1641 7.59938H14.1407L15.2563 2.38638C15.2919 2.22325 15.2969 2.05207 15.271 1.88612C15.2451 1.72018 15.189 1.56395 15.107 1.42956C15.0251 1.29647 14.92 1.18862 14.7998 1.11427C14.6795 1.03992 14.5472 1.00105 14.413 1.00065H8.26371C8.06539 0.99214 7.8706 1.06795 7.71109 1.21573C7.55157 1.36351 7.43672 1.57456 7.38524 1.81449L5.03095 12.8124C4.99542 12.9755 4.9904 13.1467 5.01631 13.3126C5.04221 13.4786 5.09832 13.6348 5.18029 13.7692C5.26303 13.9038 5.36953 14.0125 5.49146 14.0869C5.61339 14.1614 5.74742 14.1994 5.88306 14.1981H9.28274L7.69271 21.6107C7.64061 21.8497 7.65451 22.1038 7.73215 22.3317C7.80979 22.5596 7.94663 22.748 8.12049 22.8664C8.29434 22.9847 8.49503 23.0261 8.69004 22.9839C8.88504 22.9416 9.06293 22.8182 9.19489 22.6335L18.7702 9.43603C18.8842 9.27973 18.9598 9.08556 18.9878 8.87683C19.0159 8.66809 18.9952 8.45366 18.9283 8.25926ZM10.3281 17.8054L11.2681 13.4063C11.3036 13.2431 11.3086 13.072 11.2827 12.906C11.2568 12.7401 11.2007 12.5838 11.1187 12.4495C11.0369 12.3164 10.9318 12.2085 10.8115 12.1342C10.6912 12.0598 10.5589 12.0209 10.4247 12.0205H7.05142L8.93135 3.20022H13.2622L12.1465 8.41323C12.1107 8.57936 12.1065 8.75369 12.1343 8.92221C12.1621 9.09073 12.2211 9.24874 12.3066 9.38352C12.392 9.51831 12.5015 9.62611 12.6263 9.69827C12.7511 9.77042 12.8876 9.80491 13.025 9.79896H16.1611L10.3281 17.8054Z" fill="#2DD886"/>
</svg>
