<svg width="24" height="24" viewBox="0 0 24 24" fill="none" xmlns="http://www.w3.org/2000/svg">
<path d="M13 18.5001V7.72008H11V18.5001C11 18.7653 11.1054 19.0197 11.2929 19.2072C11.4804 19.3947 11.7348 19.5001 12 19.5001C12.2652 19.5001 12.5196 19.3947 12.7071 19.2072C12.8946 19.0197 13 18.7653 13 18.5001Z" fill="#2DD886"/>
<path d="M16.5 18.5001V0.420044H14.48V18.5001C14.48 19.1631 14.2166 19.799 13.7478 20.2678C13.2789 20.7367 12.643 21.0001 11.98 21.0001C11.317 21.0001 10.6811 20.7367 10.2122 20.2678C9.74339 19.799 9.48 19.1631 9.48 18.5001V0.420044H7.5V18.5001C7.5 19.6936 7.97411 20.8381 8.81802 21.6821C9.66193 22.526 10.8065 23.0001 12 23.0001C13.1935 23.0001 14.3381 22.526 15.182 21.6821C16.0259 20.8381 16.5 19.6936 16.5 18.5001Z" fill="#2DD886"/>
</svg>
