<svg width="24" height="24" viewBox="0 0 24 24" fill="none" xmlns="http://www.w3.org/2000/svg">
<path d="M13.1111 19.0177V7.0824H10.8889V19.0177C10.8889 19.3114 11.006 19.593 11.2143 19.8006C11.4227 20.0083 11.7053 20.1249 12 20.1249C12.2947 20.1249 12.5773 20.0083 12.7857 19.8006C12.994 19.593 13.1111 19.3114 13.1111 19.0177Z" fill="#2DD886"/>
<path d="M17 19.0177V0H14.7556V19.0177C14.7556 19.7518 14.4629 20.4559 13.942 20.9749C13.421 21.494 12.7145 21.7857 11.9778 21.7857C11.2411 21.7857 10.5345 21.494 10.0136 20.9749C9.49266 20.4559 9.2 19.7518 9.2 19.0177V0H7V19.0177C7 20.3391 7.52678 21.6064 8.46447 22.5407C9.40215 23.4751 10.6739 24 12 24C13.3261 24 14.5979 23.4751 15.5355 22.5407C16.4732 21.6064 17 20.3391 17 19.0177Z" fill="#2DD886"/>
</svg>
