<svg width="24" height="24" viewBox="0 0 24 24" fill="none" xmlns="http://www.w3.org/2000/svg">
<path d="M12.9843 15.28V10.5C12.9843 10.2348 12.8792 9.9804 12.6921 9.79287C12.505 9.60533 12.2513 9.49998 11.9867 9.49998C11.7221 9.49998 11.4684 9.60533 11.2813 9.79287C11.0942 9.9804 10.9891 10.2348 10.9891 10.5V15.28C10.6876 15.4545 10.4368 15.705 10.2618 16.0068C10.0868 16.3085 9.99365 16.6509 9.99154 17C9.99154 17.5304 10.2017 18.0391 10.5759 18.4142C10.9501 18.7892 11.4575 18.9999 11.9867 18.9999C12.5158 18.9999 13.0233 18.7892 13.3975 18.4142C13.7716 18.0391 13.9818 17.5304 13.9818 17C13.9797 16.6509 13.8866 16.3085 13.7116 16.0068C13.5365 15.705 13.2858 15.4545 12.9843 15.28ZM16.4758 13V5.49999C16.4758 4.30652 16.0028 3.16193 15.161 2.31802C14.3191 1.4741 13.1773 1 11.9867 1C10.7961 1 9.6543 1.4741 8.81243 2.31802C7.97056 3.16193 7.49761 4.30652 7.49761 5.49999V13C6.80813 13.7832 6.33456 14.7332 6.12376 15.7562C5.91296 16.7791 5.97222 17.8396 6.29568 18.8325C6.61915 19.8255 7.19561 20.7166 7.96804 21.4177C8.74048 22.1188 9.68212 22.6056 10.6998 22.8299C11.1226 22.9265 11.5534 22.9834 11.9867 22.9999C13.1445 23.0053 14.279 22.674 15.2528 22.0461C16.2265 21.4182 16.9977 20.5206 17.4728 19.4622C17.9479 18.4038 18.1066 17.23 17.9297 16.083C17.7527 14.936 17.2477 13.865 16.4758 13ZM14.4806 20.1499C13.6869 20.8554 12.6461 21.1359 11.5872 21.0722C10.5284 21.0084 9.53812 20.5256 8.83436 19.7299C8.13059 18.9343 7.77096 17.891 7.83456 16.8295C7.89817 15.7681 8.37981 14.7754 9.17353 14.07C9.26779 13.9773 9.34278 13.8669 9.39415 13.745C9.44552 13.6232 9.47226 13.4923 9.4728 13.36V5.49999C9.4728 4.83695 9.73556 4.20106 10.2033 3.73222C10.671 3.26339 11.3053 2.99999 11.9667 2.99999C12.6282 2.99999 13.2625 3.26339 13.7302 3.73222C14.1979 4.20106 14.4607 4.83695 14.4607 5.49999V13.44C14.4612 13.5723 14.488 13.7032 14.5393 13.825C14.5907 13.9469 14.6657 14.0573 14.76 14.15C15.1677 14.5448 15.4868 15.0223 15.6961 15.5505C15.9053 16.0787 15.9999 16.6455 15.9735 17.2133C15.9471 17.781 15.8002 18.3365 15.5428 18.8429C15.2854 19.3493 14.9233 19.7949 14.4806 20.1499Z" fill="#2DD886"/>
</svg>
