<svg width="17" height="29" viewBox="0 0 17 29" fill="none" xmlns="http://www.w3.org/2000/svg">
<path d="M5.87484 14.672C6.01351 14.7413 6.09351 14.8507 6.11484 15C6.14151 15.1493 6.10418 15.2853 6.00284 15.408C5.93351 15.504 5.84284 15.5573 5.73084 15.568C5.62418 15.5787 5.51484 15.5573 5.40284 15.504C5.27484 15.4453 5.13884 15.4 4.99484 15.368C4.85618 15.336 4.70951 15.32 4.55484 15.32C4.26684 15.32 4.00818 15.3653 3.77884 15.456C3.55484 15.5467 3.36284 15.6773 3.20284 15.848C3.04284 16.0133 2.92018 16.2107 2.83484 16.44C2.75484 16.6693 2.71484 16.9227 2.71484 17.2C2.71484 17.5253 2.76018 17.808 2.85084 18.048C2.94684 18.288 3.07751 18.488 3.24284 18.648C3.40818 18.808 3.60284 18.928 3.82684 19.008C4.05084 19.0827 4.29351 19.12 4.55484 19.12C4.69884 19.12 4.84284 19.1067 4.98684 19.08C5.13084 19.0533 5.26951 19.0053 5.40284 18.936C5.51484 18.8827 5.62418 18.864 5.73084 18.88C5.84284 18.896 5.93618 18.952 6.01084 19.048C6.11751 19.1813 6.15484 19.32 6.12284 19.464C6.09618 19.6027 6.01618 19.704 5.88284 19.768C5.74418 19.8373 5.60018 19.896 5.45084 19.944C5.30684 19.9867 5.16018 20.0187 5.01084 20.04C4.86151 20.0667 4.70951 20.08 4.55484 20.08C4.17084 20.08 3.80551 20.0187 3.45884 19.896C3.11751 19.7733 2.81084 19.592 2.53884 19.352C2.27218 19.112 2.06151 18.8133 1.90684 18.456C1.75218 18.0933 1.67484 17.6747 1.67484 17.2C1.67484 16.7893 1.74418 16.4107 1.88284 16.064C2.02684 15.7173 2.22684 15.4187 2.48284 15.168C2.74418 14.912 3.05084 14.7147 3.40284 14.576C3.75484 14.432 4.13884 14.36 4.55484 14.36C4.78951 14.36 5.01884 14.3867 5.24284 14.44C5.46684 14.4933 5.67751 14.5707 5.87484 14.672ZM8.19447 14.392C8.26914 14.392 8.34647 14.4133 8.42647 14.456C8.5118 14.4933 8.5758 14.544 8.61847 14.608L10.5625 17.6L10.1625 17.584L12.1545 14.608C12.2558 14.464 12.3865 14.392 12.5465 14.392C12.6745 14.392 12.7891 14.4373 12.8905 14.528C12.9918 14.6187 13.0425 14.736 13.0425 14.88V19.512C13.0425 19.6507 12.9971 19.768 12.9065 19.864C12.8158 19.9547 12.6958 20 12.5465 20C12.3971 20 12.2745 19.9547 12.1785 19.864C12.0878 19.768 12.0425 19.6507 12.0425 19.512V15.744L12.3545 15.816L10.7225 18.304C10.6745 18.3627 10.6131 18.4133 10.5385 18.456C10.4691 18.4987 10.3971 18.5173 10.3225 18.512C10.2531 18.5173 10.1811 18.4987 10.1065 18.456C10.0371 18.4133 9.97847 18.3627 9.93047 18.304L8.40247 15.888L8.61047 15.464V19.512C8.61047 19.6507 8.5678 19.768 8.48247 19.864C8.39714 19.9547 8.28514 20 8.14647 20C8.01314 20 7.9038 19.9547 7.81847 19.864C7.73314 19.768 7.69047 19.6507 7.69047 19.512V14.88C7.69047 14.7467 7.73847 14.632 7.83447 14.536C7.9358 14.44 8.0558 14.392 8.19447 14.392Z" fill="#757575"/>
<path d="M2.57994 1.392C2.6546 1.392 2.73194 1.41333 2.81194 1.456C2.89727 1.49333 2.96127 1.544 3.00394 1.608L4.94794 4.6L4.54794 4.584L6.53994 1.608C6.64127 1.464 6.77194 1.392 6.93194 1.392C7.05994 1.392 7.1746 1.43733 7.27594 1.528C7.37727 1.61867 7.42794 1.736 7.42794 1.88V6.512C7.42794 6.65067 7.3826 6.768 7.29194 6.864C7.20127 6.95467 7.08127 7 6.93194 7C6.7826 7 6.65994 6.95467 6.56394 6.864C6.47327 6.768 6.42794 6.65067 6.42794 6.512V2.744L6.73994 2.816L5.10794 5.304C5.05994 5.36267 4.9986 5.41333 4.92394 5.456C4.8546 5.49867 4.7826 5.51733 4.70794 5.512C4.6386 5.51733 4.5666 5.49867 4.49194 5.456C4.4226 5.41333 4.36394 5.36267 4.31594 5.304L2.78794 2.888L2.99594 2.464V6.512C2.99594 6.65067 2.95327 6.768 2.86794 6.864C2.7826 6.95467 2.6706 7 2.53194 7C2.3986 7 2.28927 6.95467 2.20394 6.864C2.1186 6.768 2.07594 6.65067 2.07594 6.512V1.88C2.07594 1.74667 2.12394 1.632 2.21994 1.536C2.32127 1.44 2.44127 1.392 2.57994 1.392ZM11.1506 7.08C10.7773 7.08 10.4413 7.03467 10.1426 6.944C9.84396 6.848 9.55863 6.68267 9.28663 6.448C9.21729 6.38933 9.16396 6.32267 9.12663 6.248C9.08929 6.17333 9.07063 6.09867 9.07063 6.024C9.07063 5.90133 9.11329 5.79467 9.19863 5.704C9.28929 5.608 9.40129 5.56 9.53463 5.56C9.63596 5.56 9.72663 5.592 9.80663 5.656C10.0093 5.82133 10.2093 5.94667 10.4066 6.032C10.6093 6.11733 10.8573 6.16 11.1506 6.16C11.348 6.16 11.5293 6.13067 11.6946 6.072C11.86 6.008 11.9933 5.92533 12.0946 5.824C12.196 5.71733 12.2466 5.59733 12.2466 5.464C12.2466 5.304 12.1986 5.168 12.1026 5.056C12.0066 4.944 11.86 4.85067 11.6626 4.776C11.4653 4.696 11.2146 4.63467 10.9106 4.592C10.6226 4.54933 10.3693 4.48533 10.1506 4.4C9.93196 4.30933 9.74796 4.19733 9.59863 4.064C9.45463 3.92533 9.34529 3.76533 9.27063 3.584C9.19596 3.39733 9.15863 3.18933 9.15863 2.96C9.15863 2.61333 9.24663 2.31733 9.42263 2.072C9.60396 1.82667 9.84663 1.64 10.1506 1.512C10.4546 1.384 10.7906 1.32 11.1586 1.32C11.5053 1.32 11.8253 1.37333 12.1186 1.48C12.4173 1.58133 12.66 1.712 12.8466 1.872C13.0013 1.99467 13.0786 2.136 13.0786 2.296C13.0786 2.41333 13.0333 2.52 12.9426 2.616C12.852 2.712 12.7453 2.76 12.6226 2.76C12.5426 2.76 12.4706 2.736 12.4066 2.688C12.3213 2.61333 12.2066 2.544 12.0626 2.48C11.9186 2.41067 11.7666 2.35467 11.6066 2.312C11.4466 2.264 11.2973 2.24 11.1586 2.24C10.9293 2.24 10.7346 2.26933 10.5746 2.328C10.42 2.38667 10.3026 2.46667 10.2226 2.568C10.1426 2.66933 10.1026 2.78667 10.1026 2.92C10.1026 3.08 10.148 3.21333 10.2386 3.32C10.3346 3.42133 10.4706 3.504 10.6466 3.568C10.8226 3.62667 11.0333 3.68 11.2786 3.728C11.5986 3.78667 11.8786 3.856 12.1186 3.936C12.364 4.016 12.5666 4.12 12.7266 4.248C12.8866 4.37067 13.0066 4.528 13.0866 4.72C13.1666 4.90667 13.2066 5.136 13.2066 5.408C13.2066 5.75467 13.1106 6.05333 12.9186 6.304C12.7266 6.55467 12.4733 6.74667 12.1586 6.88C11.8493 7.01333 11.5133 7.08 11.1506 7.08Z" fill="#757575"/>
<path d="M2 10.5L13 10.5" stroke="#757575" stroke-width="1.08" stroke-linecap="round"/>
</svg>
