<svg width="17" height="29" viewBox="0 0 17 29" fill="none" xmlns="http://www.w3.org/2000/svg">
<path d="M4.356 0.599999C4.78 0.599999 5.172 0.716 5.532 0.948C5.892 1.172 6.18 1.48 6.396 1.872C6.612 2.264 6.72 2.704 6.72 3.192C6.72 3.68 6.612 4.124 6.396 4.524C6.18 4.916 5.892 5.232 5.532 5.472C5.172 5.704 4.78 5.82 4.356 5.82H2.04L2.136 5.628V8.388C2.136 8.564 2.08 8.712 1.968 8.832C1.864 8.944 1.724 9 1.548 9C1.38 9 1.24 8.944 1.128 8.832C1.024 8.712 0.972 8.564 0.972 8.388V1.212C0.972 1.036 1.032 0.892 1.152 0.779999C1.272 0.659999 1.416 0.599999 1.584 0.599999H4.356ZM4.356 4.668C4.564 4.668 4.752 4.6 4.92 4.464C5.096 4.328 5.236 4.148 5.34 3.924C5.452 3.7 5.508 3.456 5.508 3.192C5.508 2.928 5.452 2.688 5.34 2.472C5.236 2.256 5.096 2.084 4.92 1.956C4.752 1.82 4.564 1.752 4.356 1.752H2.016L2.136 1.572V4.824L2.028 4.668H4.356ZM8.82703 0.599999C8.98703 0.599999 9.12703 0.659999 9.24703 0.779999C9.37503 0.892 9.43903 1.036 9.43903 1.212V8.388C9.43103 8.564 9.36303 8.712 9.23503 8.832C9.11503 8.944 8.97103 9 8.80303 9C8.61903 9 8.46703 8.944 8.34703 8.832C8.23503 8.712 8.17903 8.564 8.17903 8.388V1.212C8.17903 1.036 8.23903 0.892 8.35903 0.779999C8.47903 0.659999 8.63503 0.599999 8.82703 0.599999ZM14.239 0.599999C14.431 0.599999 14.583 0.659999 14.695 0.779999C14.807 0.892 14.863 1.036 14.863 1.212V8.388C14.863 8.564 14.803 8.712 14.683 8.832C14.571 8.944 14.419 9 14.227 9C14.059 9 13.915 8.944 13.795 8.832C13.675 8.712 13.615 8.564 13.615 8.388V1.212C13.615 1.036 13.675 0.892 13.795 0.779999C13.923 0.659999 14.071 0.599999 14.239 0.599999ZM8.77903 4.176H14.251L14.239 5.328H8.76703L8.77903 4.176Z" fill="#757575"/>
</svg>
