<svg width="17" height="29" viewBox="0 0 17 29" fill="none" xmlns="http://www.w3.org/2000/svg">
<path d="M5.593 3.667C5.593 4.177 5.47967 4.636 5.253 5.044C5.02633 5.44067 4.709 5.758 4.301 5.996C3.90433 6.22267 3.451 6.336 2.941 6.336C2.45367 6.336 2.01167 6.22267 1.615 5.996C1.21833 5.758 0.906667 5.44067 0.68 5.044C0.453333 4.636 0.34 4.177 0.34 3.667C0.34 3.14567 0.453333 2.681 0.68 2.273C0.906667 1.865 1.21833 1.542 1.615 1.304C2.01167 1.05467 2.45367 0.929999 2.941 0.929999C3.451 0.929999 3.90433 1.05467 4.301 1.304C4.709 1.542 5.02633 1.865 5.253 2.273C5.47967 2.681 5.593 3.14567 5.593 3.667ZM4.471 3.667C4.471 3.17967 4.335 2.77733 4.063 2.46C3.791 2.13133 3.42267 1.967 2.958 1.967C2.50467 1.967 2.142 2.13133 1.87 2.46C1.60933 2.77733 1.479 3.17967 1.479 3.667C1.479 4.12033 1.60933 4.50567 1.87 4.823C2.142 5.14033 2.50467 5.299 2.958 5.299C3.42267 5.299 3.791 5.14033 4.063 4.823C4.335 4.50567 4.471 4.12033 4.471 3.667ZM15.9908 1.882C16.1834 1.984 16.2911 2.137 16.3138 2.341C16.3478 2.545 16.2968 2.732 16.1608 2.902C16.0588 3.04933 15.9284 3.12867 15.7698 3.14C15.6111 3.15133 15.4524 3.11733 15.2938 3.038C14.9198 2.81133 14.5174 2.63567 14.0868 2.511C13.6561 2.375 13.2028 2.307 12.7268 2.307C12.0581 2.307 11.4461 2.426 10.8908 2.664C10.3354 2.89067 9.85376 3.21367 9.44576 3.633C9.03776 4.05233 8.72042 4.551 8.49376 5.129C8.26709 5.707 8.15376 6.34733 8.15376 7.05C8.15376 7.798 8.27276 8.46667 8.51076 9.056C8.74876 9.64533 9.07176 10.1497 9.47976 10.569C9.89909 10.977 10.3808 11.2887 10.9248 11.504C11.4801 11.7193 12.0808 11.827 12.7268 11.827C13.1914 11.827 13.6391 11.7647 14.0698 11.64C14.5004 11.5153 14.9084 11.334 15.2938 11.096C15.4524 11.0167 15.6111 10.9883 15.7698 11.011C15.9284 11.0337 16.0644 11.113 16.1778 11.249C16.3138 11.4303 16.3648 11.623 16.3308 11.827C16.2968 12.0197 16.1891 12.1613 16.0078 12.252C15.7244 12.422 15.4014 12.5807 15.0388 12.728C14.6761 12.864 14.2964 12.9717 13.8998 13.051C13.5144 13.1303 13.1234 13.17 12.7268 13.17C11.9108 13.17 11.1401 13.0283 10.4148 12.745C9.68942 12.4617 9.04909 12.0537 8.49376 11.521C7.93842 10.9883 7.49642 10.348 7.16776 9.6C6.85042 8.84067 6.69176 7.99067 6.69176 7.05C6.69176 6.166 6.84476 5.35567 7.15076 4.619C7.45676 3.88233 7.88176 3.242 8.42576 2.698C8.98109 2.154 9.62142 1.729 10.3468 1.423C11.0834 1.117 11.8768 0.964 12.7268 0.964C13.3161 0.964 13.8884 1.04333 14.4438 1.202C15.0104 1.36067 15.5261 1.58733 15.9908 1.882Z" fill="#757575"/>
</svg>
