<svg width="17" height="29" viewBox="0 0 17 29" fill="none" xmlns="http://www.w3.org/2000/svg">
<path d="M5.593 3.667C5.593 4.177 5.47967 4.636 5.253 5.044C5.02633 5.44067 4.709 5.758 4.301 5.996C3.90433 6.22267 3.451 6.336 2.941 6.336C2.45367 6.336 2.01167 6.22267 1.615 5.996C1.21833 5.758 0.906667 5.44067 0.68 5.044C0.453333 4.636 0.34 4.177 0.34 3.667C0.34 3.14567 0.453333 2.681 0.68 2.273C0.906667 1.865 1.21833 1.542 1.615 1.304C2.01167 1.05467 2.45367 0.929999 2.941 0.929999C3.451 0.929999 3.90433 1.05467 4.301 1.304C4.709 1.542 5.02633 1.865 5.253 2.273C5.47967 2.681 5.593 3.14567 5.593 3.667ZM4.471 3.667C4.471 3.17967 4.335 2.77733 4.063 2.46C3.791 2.13133 3.42267 1.967 2.958 1.967C2.50467 1.967 2.142 2.13133 1.87 2.46C1.60933 2.77733 1.479 3.17967 1.479 3.667C1.479 4.12033 1.60933 4.50567 1.87 4.823C2.142 5.14033 2.50467 5.299 2.958 5.299C3.42267 5.299 3.791 5.14033 4.063 4.823C4.335 4.50567 4.471 4.12033 4.471 3.667ZM8.11976 13C7.91576 13 7.74576 12.932 7.60976 12.796C7.48509 12.66 7.42276 12.4957 7.42276 12.303V1.78C7.42276 1.58733 7.48509 1.42867 7.60976 1.304C7.74576 1.168 7.91009 1.1 8.10276 1.1H14.0698C14.2624 1.1 14.4268 1.16233 14.5628 1.287C14.6988 1.41167 14.7668 1.57033 14.7668 1.763C14.7668 1.94433 14.6988 2.09733 14.5628 2.222C14.4268 2.34667 14.2624 2.409 14.0698 2.409H8.71476L8.81676 2.273V6.438L8.73176 6.251H13.3048C13.4974 6.251 13.6618 6.319 13.7978 6.455C13.9338 6.57967 14.0018 6.73833 14.0018 6.931C14.0018 7.101 13.9338 7.254 13.7978 7.39C13.6618 7.51467 13.4974 7.577 13.3048 7.577H8.69776L8.81676 7.424V12.303C8.81676 12.4957 8.74876 12.66 8.61276 12.796C8.47676 12.932 8.31242 13 8.11976 13Z" fill="#757575"/>
</svg>
