<svg width="17" height="29" viewBox="0 0 17 29" fill="none" xmlns="http://www.w3.org/2000/svg">
<path d="M2.251 6.7C2.395 6.7 2.521 6.754 2.629 6.862C2.743 6.964 2.8 7.093 2.8 7.249V12.451C2.8 12.607 2.743 12.739 2.629 12.847C2.515 12.949 2.383 13 2.233 13C2.065 13 1.93 12.949 1.828 12.847C1.726 12.739 1.675 12.607 1.675 12.451V7.249C1.675 7.093 1.729 6.964 1.837 6.862C1.945 6.754 2.083 6.7 2.251 6.7ZM6.238 6.7C6.406 6.7 6.541 6.754 6.643 6.862C6.745 6.964 6.796 7.093 6.796 7.249V12.451C6.796 12.607 6.742 12.739 6.634 12.847C6.532 12.949 6.394 13 6.22 13C6.076 13 5.947 12.949 5.833 12.847C5.725 12.739 5.671 12.607 5.671 12.451V7.249C5.671 7.093 5.728 6.964 5.842 6.862C5.956 6.754 6.088 6.7 6.238 6.7ZM2.224 9.319H6.238V10.354H2.224V9.319ZM7.79275 14.8C7.67275 14.8 7.57375 14.761 7.49575 14.683C7.41775 14.605 7.37875 14.509 7.37875 14.395C7.37875 14.317 7.39375 14.251 7.42375 14.197C7.45375 14.149 7.49575 14.098 7.54975 14.044L8.22475 13.423C8.38675 13.267 8.52475 13.111 8.63875 12.955C8.75875 12.799 8.81875 12.646 8.81875 12.496C8.81875 12.376 8.78875 12.289 8.72875 12.235C8.66875 12.175 8.58775 12.145 8.48575 12.145C8.41375 12.145 8.34175 12.166 8.26975 12.208C8.20375 12.25 8.14675 12.304 8.09875 12.37C8.05675 12.418 8.01175 12.451 7.96375 12.469C7.91575 12.481 7.86775 12.487 7.81975 12.487C7.68775 12.487 7.58575 12.451 7.51375 12.379C7.44775 12.301 7.41475 12.214 7.41475 12.118C7.41475 11.98 7.47775 11.854 7.60375 11.74C7.72975 11.626 7.88275 11.536 8.06275 11.47C8.24275 11.404 8.41375 11.371 8.57575 11.371C8.85175 11.371 9.07375 11.428 9.24175 11.542C9.41575 11.65 9.54175 11.788 9.61975 11.956C9.69775 12.124 9.73675 12.298 9.73675 12.478C9.73675 12.616 9.70375 12.754 9.63775 12.892C9.57175 13.024 9.48475 13.153 9.37675 13.279C9.26875 13.405 9.15175 13.528 9.02575 13.648L8.42275 14.17L8.36875 14.08H9.38575C9.49375 14.08 9.58075 14.113 9.64675 14.179C9.71875 14.251 9.75475 14.338 9.75475 14.44C9.75475 14.542 9.71875 14.626 9.64675 14.692C9.58075 14.764 9.49375 14.8 9.38575 14.8H7.79275ZM16.1381 9.85C16.1381 10.3 16.0631 10.72 15.9131 11.11C15.7631 11.5 15.5501 11.845 15.2741 12.145C15.0041 12.439 14.6801 12.67 14.3021 12.838C13.9301 13.006 13.5221 13.09 13.0781 13.09C12.6341 13.09 12.2261 13.006 11.8541 12.838C11.4821 12.67 11.1581 12.439 10.8821 12.145C10.6121 11.845 10.4021 11.5 10.2521 11.11C10.1021 10.72 10.0271 10.3 10.0271 9.85C10.0271 9.4 10.1021 8.98 10.2521 8.59C10.4021 8.2 10.6121 7.858 10.8821 7.564C11.1581 7.264 11.4821 7.03 11.8541 6.862C12.2261 6.694 12.6341 6.61 13.0781 6.61C13.5221 6.61 13.9301 6.694 14.3021 6.862C14.6801 7.03 15.0041 7.264 15.2741 7.564C15.5501 7.858 15.7631 8.2 15.9131 8.59C16.0631 8.98 16.1381 9.4 16.1381 9.85ZM14.9681 9.85C14.9681 9.448 14.8871 9.085 14.7251 8.761C14.5631 8.431 14.3411 8.17 14.0591 7.978C13.7771 7.786 13.4501 7.69 13.0781 7.69C12.7061 7.69 12.3791 7.786 12.0971 7.978C11.8151 8.17 11.5931 8.428 11.4311 8.752C11.2751 9.076 11.1971 9.442 11.1971 9.85C11.1971 10.252 11.2751 10.618 11.4311 10.948C11.5931 11.272 11.8151 11.53 12.0971 11.722C12.3791 11.914 12.7061 12.01 13.0781 12.01C13.4501 12.01 13.7771 11.914 14.0591 11.722C14.3411 11.53 14.5631 11.272 14.7251 10.948C14.8871 10.618 14.9681 10.252 14.9681 9.85Z" fill="#757575"/>
<path d="M4.5 1.5V4M2.25 1.5V4" stroke="#757575" stroke-width="1.2" stroke-linecap="round"/>
</svg>
