<svg width="31" height="31" viewBox="0 0 31 31" fill="none" xmlns="http://www.w3.org/2000/svg">
<path fill-rule="evenodd" clip-rule="evenodd" d="M15.4996 2.46594C12.4035 2.46461 9.40806 3.56544 7.04963 5.5713C4.69119 7.57717 3.1238 10.3571 2.62812 13.4132C2.13244 16.4694 2.74084 19.6021 4.34439 22.2506C5.94793 24.8991 8.44189 26.8902 11.3797 27.8675C12.0304 27.9871 12.2695 27.5853 12.2695 27.2403C12.2695 26.9287 12.2578 26.1114 12.2499 25.0236C8.62587 25.8095 7.85951 23.2753 7.85951 23.2753C7.26759 21.77 6.41303 21.3682 6.41303 21.3682C5.22919 20.5607 6.50319 20.5763 6.50319 20.5763C7.81051 20.6685 8.49847 21.9189 8.49847 21.9189C9.66271 23.9123 11.5502 23.336 12.293 23.0028C12.4106 22.16 12.7478 21.5857 13.1202 21.2604C10.2252 20.9311 7.18331 19.8139 7.18331 14.8179C7.18331 13.3949 7.69291 12.2326 8.52591 11.3212C8.39067 10.9919 7.94379 9.66698 8.65331 7.87162C8.65331 7.87162 9.74699 7.52078 12.2362 9.20638C13.275 8.91826 14.3922 8.77518 15.4996 8.7693C16.6019 8.77084 17.6992 8.91781 18.763 9.20638C21.2522 7.52078 22.3439 7.87358 22.3439 7.87358C23.0554 9.66698 22.6085 10.99 22.4733 11.3212C23.3102 12.2326 23.8139 13.3949 23.8139 14.8179C23.8139 19.8257 20.7661 20.9272 17.8634 21.2506C18.3298 21.6524 18.7454 22.4481 18.7454 23.6653C18.7454 25.4058 18.7316 26.8111 18.7316 27.2384C18.7316 27.5873 18.9668 27.993 19.6274 27.8656C22.5596 26.8825 25.047 24.8891 26.6452 22.2414C28.2434 19.5937 28.8483 16.4641 28.352 13.4115C27.8557 10.3589 26.2904 7.58215 23.9357 5.57712C21.5811 3.5721 18.5903 2.4694 15.4976 2.46594H15.4996Z" fill="white"/>
<path fill-rule="evenodd" clip-rule="evenodd" d="M15.4996 2.46594C12.4035 2.46461 9.40806 3.56544 7.04963 5.5713C4.69119 7.57717 3.1238 10.3571 2.62812 13.4132C2.13244 16.4694 2.74084 19.6021 4.34439 22.2506C5.94793 24.8991 8.44189 26.8902 11.3797 27.8675C12.0304 27.9871 12.2695 27.5853 12.2695 27.2403C12.2695 26.9287 12.2578 26.1114 12.2499 25.0236C8.62587 25.8095 7.85951 23.2753 7.85951 23.2753C7.26759 21.77 6.41303 21.3682 6.41303 21.3682C5.22919 20.5607 6.50319 20.5763 6.50319 20.5763C7.81051 20.6685 8.49847 21.9189 8.49847 21.9189C9.66271 23.9123 11.5502 23.336 12.293 23.0028C12.4106 22.16 12.7478 21.5857 13.1202 21.2604C10.2252 20.9311 7.18331 19.8139 7.18331 14.8179C7.18331 13.3949 7.69291 12.2326 8.52591 11.3212C8.39067 10.9919 7.94379 9.66698 8.65331 7.87162C8.65331 7.87162 9.74699 7.52078 12.2362 9.20638C13.275 8.91826 14.3922 8.77518 15.4996 8.7693C16.6019 8.77084 17.6992 8.91781 18.763 9.20638C21.2522 7.52078 22.3439 7.87358 22.3439 7.87358C23.0554 9.66698 22.6085 10.99 22.4733 11.3212C23.3102 12.2326 23.8139 13.3949 23.8139 14.8179C23.8139 19.8257 20.7661 20.9272 17.8634 21.2506C18.3298 21.6524 18.7454 22.4481 18.7454 23.6653C18.7454 25.4058 18.7316 26.8111 18.7316 27.2384C18.7316 27.5873 18.9668 27.993 19.6274 27.8656C22.5596 26.8825 25.047 24.8891 26.6452 22.2414C28.2434 19.5937 28.8483 16.4641 28.352 13.4115C27.8557 10.3589 26.2904 7.58215 23.9357 5.57712C21.5811 3.5721 18.5903 2.4694 15.4976 2.46594H15.4996Z" fill="url(#paint0_linear_1118_155)"/>
<defs>
<linearGradient id="paint0_linear_1118_155" x1="15.4905" y1="2.46594" x2="15.4905" y2="27.8895" gradientUnits="userSpaceOnUse">
<stop stop-color="#2DD886" stop-opacity="0"/>
<stop offset="1" stop-color="#2DD886" stop-opacity="0.02"/>
</linearGradient>
</defs>
</svg>
