<svg width="30" height="31" viewBox="0 0 30 31" fill="none" xmlns="http://www.w3.org/2000/svg">
<path fill-rule="evenodd" clip-rule="evenodd" d="M14.6997 4.26977C11.7212 4.26977 8.8648 5.45295 6.75873 7.55902C4.65265 9.66509 3.46948 12.5215 3.46948 15.5C3.46948 18.4784 4.65265 21.3349 6.75873 23.4409C8.8648 25.547 11.7212 26.7302 14.6997 26.7302C17.6781 26.7302 20.5346 25.547 22.6406 23.4409C24.7467 21.3349 25.9299 18.4784 25.9299 15.5C25.9299 12.5215 24.7467 9.66509 22.6406 7.55902C20.5346 5.45295 17.6781 4.26977 14.6997 4.26977ZM15.7495 22.4886C16.0279 22.2101 16.1844 21.8325 16.1844 21.4387C16.1844 21.045 16.0279 20.6673 15.7495 20.3889C15.4711 20.1105 15.0934 19.954 14.6997 19.954C14.3059 19.954 13.9283 20.1105 13.6498 20.3889C13.3714 20.6673 13.215 21.045 13.215 21.4387C13.215 21.8325 13.3714 22.2101 13.6498 22.4886C13.9283 22.767 14.3059 22.9234 14.6997 22.9234C15.0934 22.9234 15.4711 22.767 15.7495 22.4886ZM14.6997 10.4025C12.9873 10.4025 11.8293 11.6833 11.8293 13.0255C11.8293 13.3142 11.7146 13.5912 11.5104 13.7954C11.3062 13.9995 11.0293 14.1143 10.7405 14.1143C10.4517 14.1143 10.1748 13.9995 9.97062 13.7954C9.76644 13.5912 9.65173 13.3142 9.65173 13.0255C9.65173 10.4085 11.859 8.22498 14.6997 8.22498C17.5404 8.22498 19.7476 10.4085 19.7476 13.0255C19.7476 15.211 18.3025 16.272 17.2454 16.9154C17.0415 17.0381 16.8653 17.141 16.7109 17.2301L16.6749 17.2511C16.3939 17.4148 16.1801 17.5394 15.9864 17.6894C15.9106 17.7432 15.8437 17.8086 15.7885 17.8834C15.7874 18.1722 15.6717 18.4487 15.4668 18.6521C15.2618 18.8556 14.9845 18.9693 14.6957 18.9682C14.407 18.9672 14.1304 18.8514 13.927 18.6465C13.7236 18.4416 13.6099 18.1642 13.6109 17.8755C13.6109 16.949 14.1691 16.3453 14.6482 15.9731C15.0049 15.7122 15.3778 15.4741 15.7647 15.2604C15.8934 15.1852 16.0121 15.1179 16.1131 15.0546C17.0356 14.4943 17.5701 13.9975 17.5701 13.0255C17.5701 11.6833 16.412 10.4025 14.6997 10.4025Z" fill="white"/>
<path fill-rule="evenodd" clip-rule="evenodd" d="M14.6997 4.26977C11.7212 4.26977 8.8648 5.45295 6.75873 7.55902C4.65265 9.66509 3.46948 12.5215 3.46948 15.5C3.46948 18.4784 4.65265 21.3349 6.75873 23.4409C8.8648 25.547 11.7212 26.7302 14.6997 26.7302C17.6781 26.7302 20.5346 25.547 22.6406 23.4409C24.7467 21.3349 25.9299 18.4784 25.9299 15.5C25.9299 12.5215 24.7467 9.66509 22.6406 7.55902C20.5346 5.45295 17.6781 4.26977 14.6997 4.26977ZM15.7495 22.4886C16.0279 22.2101 16.1844 21.8325 16.1844 21.4387C16.1844 21.045 16.0279 20.6673 15.7495 20.3889C15.4711 20.1105 15.0934 19.954 14.6997 19.954C14.3059 19.954 13.9283 20.1105 13.6498 20.3889C13.3714 20.6673 13.215 21.045 13.215 21.4387C13.215 21.8325 13.3714 22.2101 13.6498 22.4886C13.9283 22.767 14.3059 22.9234 14.6997 22.9234C15.0934 22.9234 15.4711 22.767 15.7495 22.4886ZM14.6997 10.4025C12.9873 10.4025 11.8293 11.6833 11.8293 13.0255C11.8293 13.3142 11.7146 13.5912 11.5104 13.7954C11.3062 13.9995 11.0293 14.1143 10.7405 14.1143C10.4517 14.1143 10.1748 13.9995 9.97062 13.7954C9.76644 13.5912 9.65173 13.3142 9.65173 13.0255C9.65173 10.4085 11.859 8.22498 14.6997 8.22498C17.5404 8.22498 19.7476 10.4085 19.7476 13.0255C19.7476 15.211 18.3025 16.272 17.2454 16.9154C17.0415 17.0381 16.8653 17.141 16.7109 17.2301L16.6749 17.2511C16.3939 17.4148 16.1801 17.5394 15.9864 17.6894C15.9106 17.7432 15.8437 17.8086 15.7885 17.8834C15.7874 18.1722 15.6717 18.4487 15.4668 18.6521C15.2618 18.8556 14.9845 18.9693 14.6957 18.9682C14.407 18.9672 14.1304 18.8514 13.927 18.6465C13.7236 18.4416 13.6099 18.1642 13.6109 17.8755C13.6109 16.949 14.1691 16.3453 14.6482 15.9731C15.0049 15.7122 15.3778 15.4741 15.7647 15.2604C15.8934 15.1852 16.0121 15.1179 16.1131 15.0546C17.0356 14.4943 17.5701 13.9975 17.5701 13.0255C17.5701 11.6833 16.412 10.4025 14.6997 10.4025Z" fill="url(#paint0_linear_1118_153)"/>
<path fill-rule="evenodd" clip-rule="evenodd" d="M1.58887 15.5C1.58887 12.0228 2.97018 8.68798 5.42893 6.22923C7.88769 3.77047 11.2225 2.38916 14.6997 2.38916C18.1769 2.38916 21.5117 3.77047 23.9704 6.22923C26.4292 8.68798 27.8105 12.0228 27.8105 15.5C27.8105 18.9772 26.4292 22.312 23.9704 24.7707C21.5117 27.2295 18.1769 28.6108 14.6997 28.6108C11.2225 28.6108 7.88769 27.2295 5.42893 24.7707C2.97018 22.312 1.58887 18.9772 1.58887 15.5ZM14.6997 4.26977C11.7212 4.26977 8.8648 5.45295 6.75873 7.55902C4.65265 9.66509 3.46948 12.5215 3.46948 15.5C3.46948 18.4784 4.65265 21.3349 6.75873 23.4409C8.8648 25.547 11.7212 26.7302 14.6997 26.7302C17.6781 26.7302 20.5346 25.547 22.6406 23.4409C24.7467 21.3349 25.9299 18.4784 25.9299 15.5C25.9299 12.5215 24.7467 9.66509 22.6406 7.55902C20.5346 5.45295 17.6781 4.26977 14.6997 4.26977Z" fill="white"/>
<path fill-rule="evenodd" clip-rule="evenodd" d="M1.58887 15.5C1.58887 12.0228 2.97018 8.68798 5.42893 6.22923C7.88769 3.77047 11.2225 2.38916 14.6997 2.38916C18.1769 2.38916 21.5117 3.77047 23.9704 6.22923C26.4292 8.68798 27.8105 12.0228 27.8105 15.5C27.8105 18.9772 26.4292 22.312 23.9704 24.7707C21.5117 27.2295 18.1769 28.6108 14.6997 28.6108C11.2225 28.6108 7.88769 27.2295 5.42893 24.7707C2.97018 22.312 1.58887 18.9772 1.58887 15.5ZM14.6997 4.26977C11.7212 4.26977 8.8648 5.45295 6.75873 7.55902C4.65265 9.66509 3.46948 12.5215 3.46948 15.5C3.46948 18.4784 4.65265 21.3349 6.75873 23.4409C8.8648 25.547 11.7212 26.7302 14.6997 26.7302C17.6781 26.7302 20.5346 25.547 22.6406 23.4409C24.7467 21.3349 25.9299 18.4784 25.9299 15.5C25.9299 12.5215 24.7467 9.66509 22.6406 7.55902C20.5346 5.45295 17.6781 4.26977 14.6997 4.26977Z" fill="url(#paint1_linear_1118_153)"/>
<defs>
<linearGradient id="paint0_linear_1118_153" x1="14.6997" y1="2.38916" x2="14.6997" y2="28.6108" gradientUnits="userSpaceOnUse">
<stop stop-color="#2DD886" stop-opacity="0"/>
<stop offset="1" stop-color="#2DD886" stop-opacity="0.02"/>
</linearGradient>
<linearGradient id="paint1_linear_1118_153" x1="14.6997" y1="2.38916" x2="14.6997" y2="28.6108" gradientUnits="userSpaceOnUse">
<stop stop-color="#2DD886" stop-opacity="0"/>
<stop offset="1" stop-color="#2DD886" stop-opacity="0.02"/>
</linearGradient>
</defs>
</svg>
