<svg width="30" height="31" viewBox="0 0 30 31" fill="none" xmlns="http://www.w3.org/2000/svg">
<g clip-path="url(#clip0_1118_158)">
<path d="M29.4517 13.2775L26.1863 12.3028C25.9605 11.5145 25.6501 10.7531 25.2603 10.0317L26.8589 7.03923C26.9189 6.92628 26.9408 6.797 26.9215 6.67057C26.9022 6.54415 26.8426 6.42732 26.7516 6.33743L24.422 3.99807C24.3322 3.9071 24.2153 3.84754 24.0889 3.82822C23.9625 3.80891 23.8332 3.83087 23.7202 3.89085L20.7473 5.47966C20.0188 5.07092 19.2473 4.74402 18.4469 4.50493L17.4722 1.27857C17.431 1.15967 17.3531 1.05692 17.2497 0.985103C17.1464 0.913288 17.0229 0.876114 16.8971 0.878933H13.6025C13.4759 0.879523 13.3529 0.920491 13.2512 0.995875C13.1495 1.07126 13.0745 1.17713 13.0372 1.29807L12.0624 4.51468C11.2554 4.75249 10.4773 5.07942 9.74259 5.48941L6.8184 3.91035C6.70544 3.85037 6.57616 3.8284 6.44973 3.84772C6.32331 3.86703 6.20648 3.9266 6.11659 4.01757L3.74799 6.32768C3.65702 6.41757 3.59745 6.5344 3.57814 6.66083C3.55883 6.78725 3.58079 6.91653 3.64077 7.02949L5.21984 9.95368C4.8105 10.6853 4.48359 11.4601 4.2451 12.2638L1.01874 13.2385C0.897802 13.2759 0.791935 13.3508 0.716551 13.4525C0.641167 13.5542 0.600199 13.6773 0.599609 13.8039V17.0985C0.600199 17.225 0.641167 17.3481 0.716551 17.4498C0.791935 17.5515 0.897802 17.6265 1.01874 17.6638L4.2646 18.6385C4.50569 19.4289 4.83255 20.1904 5.23933 20.9097L3.64077 23.9703C3.58079 24.0833 3.55883 24.2126 3.57814 24.339C3.59745 24.4654 3.65702 24.5822 3.74799 24.6721L6.0776 27.0017C6.16749 27.0927 6.28432 27.1523 6.41074 27.1716C6.53717 27.1909 6.66645 27.1689 6.77941 27.109L9.79132 25.5006C10.5038 25.8851 11.2554 26.1923 12.0332 26.4169L13.0079 29.7017C13.0453 29.8227 13.1203 29.9285 13.2219 30.0039C13.3236 30.0793 13.4467 30.1203 13.5733 30.1209H16.8679C16.9945 30.1203 17.1175 30.0793 17.2192 30.0039C17.3209 29.9285 17.3959 29.8227 17.4332 29.7017L18.4079 26.4071C19.1791 26.1814 19.9241 25.8742 20.6303 25.4909L23.6618 27.109C23.7747 27.1689 23.904 27.1909 24.0304 27.1716C24.1568 27.1523 24.2737 27.0927 24.3636 27.0017L26.6932 24.6721C26.7841 24.5822 26.8437 24.4654 26.863 24.339C26.8823 24.2126 26.8604 24.0833 26.8004 23.9703L25.1823 20.9487C25.5696 20.2397 25.8801 19.4914 26.1083 18.7165L29.3932 17.7418C29.5141 17.7044 29.62 17.6295 29.6954 17.5278C29.7707 17.4261 29.8117 17.303 29.8123 17.1764V13.8526C29.8181 13.7314 29.7866 13.6113 29.7221 13.5085C29.6576 13.4057 29.5633 13.3251 29.4517 13.2775ZM15.2498 20.8609C14.1895 20.8609 13.153 20.5465 12.2714 19.9574C11.3898 19.3684 10.7026 18.5311 10.2969 17.5515C9.89112 16.5719 9.78495 15.494 9.99181 14.454C10.1987 13.4141 10.7093 12.4588 11.459 11.7091C12.2088 10.9593 13.164 10.4487 14.2039 10.2419C15.2439 10.035 16.3218 10.1412 17.3014 10.547C18.281 10.9527 19.1183 11.6399 19.7073 12.5215C20.2964 13.4031 20.6108 14.4396 20.6108 15.4999C20.6108 16.9217 20.046 18.2853 19.0406 19.2907C18.0352 20.2961 16.6717 20.8609 15.2498 20.8609Z" fill="white"/>
<path d="M29.4517 13.2775L26.1863 12.3028C25.9605 11.5145 25.6501 10.7531 25.2603 10.0317L26.8589 7.03923C26.9189 6.92628 26.9408 6.797 26.9215 6.67057C26.9022 6.54415 26.8426 6.42732 26.7516 6.33743L24.422 3.99807C24.3322 3.9071 24.2153 3.84754 24.0889 3.82822C23.9625 3.80891 23.8332 3.83087 23.7202 3.89085L20.7473 5.47966C20.0188 5.07092 19.2473 4.74402 18.4469 4.50493L17.4722 1.27857C17.431 1.15967 17.3531 1.05692 17.2497 0.985103C17.1464 0.913288 17.0229 0.876114 16.8971 0.878933H13.6025C13.4759 0.879523 13.3529 0.920491 13.2512 0.995875C13.1495 1.07126 13.0745 1.17713 13.0372 1.29807L12.0624 4.51468C11.2554 4.75249 10.4773 5.07942 9.74259 5.48941L6.8184 3.91035C6.70544 3.85037 6.57616 3.8284 6.44973 3.84772C6.32331 3.86703 6.20648 3.9266 6.11659 4.01757L3.74799 6.32768C3.65702 6.41757 3.59745 6.5344 3.57814 6.66083C3.55883 6.78725 3.58079 6.91653 3.64077 7.02949L5.21984 9.95368C4.8105 10.6853 4.48359 11.4601 4.2451 12.2638L1.01874 13.2385C0.897802 13.2759 0.791935 13.3508 0.716551 13.4525C0.641167 13.5542 0.600199 13.6773 0.599609 13.8039V17.0985C0.600199 17.225 0.641167 17.3481 0.716551 17.4498C0.791935 17.5515 0.897802 17.6265 1.01874 17.6638L4.2646 18.6385C4.50569 19.4289 4.83255 20.1904 5.23933 20.9097L3.64077 23.9703C3.58079 24.0833 3.55883 24.2126 3.57814 24.339C3.59745 24.4654 3.65702 24.5822 3.74799 24.6721L6.0776 27.0017C6.16749 27.0927 6.28432 27.1523 6.41074 27.1716C6.53717 27.1909 6.66645 27.1689 6.77941 27.109L9.79132 25.5006C10.5038 25.8851 11.2554 26.1923 12.0332 26.4169L13.0079 29.7017C13.0453 29.8227 13.1203 29.9285 13.2219 30.0039C13.3236 30.0793 13.4467 30.1203 13.5733 30.1209H16.8679C16.9945 30.1203 17.1175 30.0793 17.2192 30.0039C17.3209 29.9285 17.3959 29.8227 17.4332 29.7017L18.4079 26.4071C19.1791 26.1814 19.9241 25.8742 20.6303 25.4909L23.6618 27.109C23.7747 27.1689 23.904 27.1909 24.0304 27.1716C24.1568 27.1523 24.2737 27.0927 24.3636 27.0017L26.6932 24.6721C26.7841 24.5822 26.8437 24.4654 26.863 24.339C26.8823 24.2126 26.8604 24.0833 26.8004 23.9703L25.1823 20.9487C25.5696 20.2397 25.8801 19.4914 26.1083 18.7165L29.3932 17.7418C29.5141 17.7044 29.62 17.6295 29.6954 17.5278C29.7707 17.4261 29.8117 17.303 29.8123 17.1764V13.8526C29.8181 13.7314 29.7866 13.6113 29.7221 13.5085C29.6576 13.4057 29.5633 13.3251 29.4517 13.2775ZM15.2498 20.8609C14.1895 20.8609 13.153 20.5465 12.2714 19.9574C11.3898 19.3684 10.7026 18.5311 10.2969 17.5515C9.89112 16.5719 9.78495 15.494 9.99181 14.454C10.1987 13.4141 10.7093 12.4588 11.459 11.7091C12.2088 10.9593 13.164 10.4487 14.2039 10.2419C15.2439 10.035 16.3218 10.1412 17.3014 10.547C18.281 10.9527 19.1183 11.6399 19.7073 12.5215C20.2964 13.4031 20.6108 14.4396 20.6108 15.4999C20.6108 16.9217 20.046 18.2853 19.0406 19.2907C18.0352 20.2961 16.6717 20.8609 15.2498 20.8609Z" fill="url(#paint0_linear_1118_158)"/>
</g>
<defs>
<linearGradient id="paint0_linear_1118_158" x1="15.2063" y1="0.878784" x2="15.2063" y2="30.1209" gradientUnits="userSpaceOnUse">
<stop stop-color="#2DD886" stop-opacity="0"/>
<stop offset="1" stop-color="#2DD886" stop-opacity="0.02"/>
</linearGradient>
<clipPath id="clip0_1118_158">
<rect width="29.4" height="29.4" fill="white" transform="translate(0.599609 0.800049)"/>
</clipPath>
</defs>
</svg>
